<?xml version="1.0" encoding="UTF-8"?>
<svg width="700pt" height="700pt" version="1.1" viewBox="0 0 700 700" xmlns="http://www.w3.org/2000/svg" xmlns:xlink="http://www.w3.org/1999/xlink">
 <g>
  <path d="m641.66 303.32h-46.672c-12.883 0-23.336-10.438-23.336-23.328 0-12.883 10.453-23.316 23.336-23.316h46.672c12.879 0 23.336 10.445 23.336 23.316 0.007812 12.887-10.457 23.328-23.336 23.328z" fill="#010101"/>
  <path d="m549.99 148c-9.1172 9.1094-23.883 9.1094-33 0-9.1172-9.1055-9.1172-23.883 0-32.988l33-33c9.1094-9.1094 23.883-9.1094 32.992 0 9.1172 9.1055 9.1172 23.891 0 33z" fill="#010101"/>
  <path d="m515.6 330.1c5.9648-15.566 9.3867-32.426 9.4141-50.105 0-77.301-62.691-140-140.02-140-44.996 0-84.93 21.32-110.55 54.301-16.715-4.9219-34.43-7.625-52.777-7.625-103.09 0.003906-186.67 83.574-186.67 186.66 0 103.1 83.578 186.67 186.66 186.67h186.66c77.328 0 140.02-62.691 140.02-140 0-34.234-12.328-65.566-32.746-89.902zm-130.61-143.43c51.555 0 93.348 41.793 93.348 93.324 0 6.1055-0.64453 12.047-1.7578 17.816-20.184-11.297-43.453-17.816-68.254-17.816-8.1211 0-15.969 1.0703-23.727 2.3945-15.676-28.027-38.375-51.555-65.672-68.316 16.883-16.926 40.25-27.402 66.062-27.402zm23.336 326.66h-186.67c-77.32 0-139.99-62.672-139.99-140s62.672-139.99 139.99-139.99c66.41 0 121.75 46.355 136.11 108.39 14.586-9.4375 31.891-15.07 50.562-15.07 51.555 0 93.324 41.801 93.324 93.34 0.007813 51.539-41.766 93.332-93.32 93.332z" fill="#010101"/>
  <path d="m384.98 93.324c-12.883 0-23.336-10.445-23.336-23.324v-46.664c0-12.891 10.457-23.336 23.336-23.336 12.891 0 23.336 10.445 23.336 23.336v46.664c0 12.891-10.434 23.324-23.336 23.324z" fill="#010101"/>
  <path d="m220 148-32.988-32.988c-9.1172-9.1094-9.1172-23.895 0-33 9.0977-9.1094 23.883-9.1094 32.988 0l32.992 33c9.1172 9.1055 9.1172 23.883 0 32.988-9.0977 9.1094-23.883 9.1094-32.992 0z" fill="#010101"/>
 </g>
</svg>
